<svg xmlns="http://www.w3.org/2000/svg"
shape-rendering="geometricPrecision"
width="4000" height="4000" viewBox="0 0 521 521"><rect width="100%" height="100%" fill="#285F95" />
  <metadata>null</metadata>

<path d="
M 23.01 392.646
C 23.412 389.872 23.113 386.807 23.125 384
C 23.148 378.334 23.113 372.667 23.114 367.001
C 23.119 349.333 23.065 331.666 23.087 313.999
C 23.138 272.498 23.079 230.998 23.079 189.497
C 23.079 169.056 22.605 148.549 23.151 128.118
C 24.038 127.387 26.378 127.841 27.5 127.833
C 31.667 127.802 35.833 127.787 40 127.779
C 50.666 127.758 61.333 127.726 71.999 127.718
C 77.485 127.714 83.195 127.262 88.653 127.84
C 88.02 131.654 88.629 136.12 88.634 140.004
C 88.644 148.171 88.623 156.338 88.641 164.504
C 88.696 189.671 88.704 214.837 88.723 240.003
C 88.738 260.336 88.743 280.669 88.743 301.002
C 88.743 307.668 88.741 314.334 88.767 321
C 88.779 324.054 88.329 327.491 88.892 330.491
C 100.714 329.951 112.666 330.403 124.502 330.393
C 147.834 330.373 171.167 330.387 194.499 330.325
C 202 330.305 209.501 330.293 217.002 330.308
C 220.752 330.315 224.595 330.595 228.333 330.31
C 228.443 331.353 225.82 333.626 225.161 334.465
C 222.102 338.359 219.119 342.314 216.045 346.198
C 208.265 356.031 200.219 365.649 192.45 375.49
C 187.809 381.369 183.481 387.66 178.573 393.307
C 177.613 393.753 176.056 393.403 175.005 393.382
C 172.171 393.326 169.338 393.282 166.503 393.275
C 156.17 393.25 145.836 393.235 135.503 393.23
C 110.503 393.218 85.503 393.18 60.504 393.204
C 52.337 393.212 44.17 393.22 36.003 393.23
C 31.765 393.235 27.407 392.944 23.185 393.316
C 22.831 393.079 22.973 393.261 23.01 392.646 Z"
opacity="1" fill="rgb(238,238,239)" fill-rule="evenodd" />
<path d="
M 207.959 127.707
C 210.172 128.054 212.727 127.774 214.996 127.741
C 219.33 127.68 223.666 127.685 228 127.664
C 241.334 127.599 254.669 127.61 268.003 127.613
C 272.67 127.614 277.337 127.592 282.004 127.617
C 284.062 127.628 286.575 127.224 288.555 127.777
C 293.01 134.648 298.839 140.935 303.958 147.336
C 315.606 161.901 327.392 176.508 338.561 191.439
C 336.949 194.2 334.252 196.621 332.256 199.134
C 326.569 206.291 320.808 213.404 315.225 220.644
C 311.33 225.695 307.44 230.749 303.544 235.799
C 301.846 238 300.171 241.131 298.087 242.933
C 292.298 236.513 287.479 228.989 282.074 222.229
C 271.246 208.688 260.733 194.883 250.1 181.189
C 240.324 168.599 230.343 156.169 220.565 143.579
C 216.452 138.284 211.703 133.258 207.959 127.707 Z"
opacity="1" fill="rgb(239,239,239)" fill-rule="evenodd" />
<path d="
M 208.714 393.264
C 211.49 390.247 213.956 386.737 216.487 383.502
C 220.975 377.764 225.625 372.152 230.072 366.382
C 239.563 354.067 249.644 342.217 259.118 329.892
C 290.56 288.992 323.164 248.98 354.705 208.152
C 368.935 189.734 383.071 171.15 397.797 153.129
C 402.325 147.587 406.726 141.911 411.123 136.265
C 413.195 133.606 415.143 130.281 417.711 128.089
C 420.451 127.511 423.945 127.912 426.756 127.905
C 432.504 127.892 438.252 127.884 444 127.862
C 462.191 127.791 480.396 127.629 498.582 127.865
C 496.81 131.265 493.437 134.325 491.09 137.381
C 484.838 145.52 478.213 153.365 471.953 161.494
C 451.418 188.165 430.416 214.456 409.614 240.919
C 382.254 275.724 354.729 310.4 327.251 345.111
C 318.933 355.618 310.55 366.086 302.254 376.609
C 299.234 380.441 296.175 384.256 293.199 388.123
C 291.914 389.792 290.779 391.681 289.25 393.143
C 285.302 393.893 280.537 393.122 276.511 393.108
C 267.844 393.079 259.177 393.099 250.51 393.122
C 240.841 393.148 231.172 393.247 221.503 393.242
C 217.47 393.24 212.651 394.006 208.714 393.264 Z"
opacity="1" fill="rgb(239,239,239)" fill-rule="evenodd" />
<path d="
M 367.895 331.606
C 373.257 325.235 378.205 318.452 383.338 311.894
C 391.707 301.202 400.225 290.613 408.586 279.921
C 409.244 280.14 409.98 281.432 410.415 281.991
C 411.964 283.979 413.578 285.917 415.129 287.904
C 420.54 294.832 425.974 301.749 431.466 308.613
C 446.785 327.759 461.986 347.013 477.051 366.359
C 481.833 372.5 486.668 378.599 491.453 384.736
C 493.078 386.82 494.74 388.874 496.377 390.948
C 497.035 391.781 498.044 392.612 498.529 393.533
C 491.233 393.019 483.831 393.253 476.504 393.239
C 464.337 393.215 452.171 393.207 440.004 393.213
C 434.337 393.216 428.67 393.202 423.004 393.208
C 420.898 393.211 417.737 393.84 415.773 393.141
C 405.492 380.152 395.409 366.966 385.177 353.93
C 381.644 349.43 378.14 344.903 374.644 340.373
C 372.51 337.607 370.436 334.417 367.817 332.085
C 367.843 331.926 367.869 331.766 367.895 331.606 Z"
opacity="1" fill="rgb(238,239,239)" fill-rule="evenodd" />

</svg>